<?xml version="1.0" standalone="no"?>
<svg xmlns="http://www.w3.org/2000/svg" viewBox="0 0 208.008 29" width="208.008" height="29"><g fill="#212529" color="#212529" transform="translate(0, 0) scale(0.659091)"><svg width="44.0" height="44.0" x="0.0" y="0.0" viewBox="0 0 44 44"><path fill="currentColor" fill-rule="evenodd" d="M38.728 38.728c-4.084 4.085-10.73 4.085-14.814 0l-.444-.397c-.097-.097-.916-.91-1.519-2.168a8.669 8.669 0 0 1-1.513 2.212l-.353.353c-4.084 4.085-10.73 4.085-14.814 0-4.084-4.084-4.084-10.73 0-14.814l11.891-11.89.857.856-11.89 11.891c-3.613 3.612-3.613 9.489 0 13.1 3.611 3.614 9.488 3.614 13.1 0l.371-.372c.938-.973 1.646-2.475 1.698-4.023 0-.045.004-.09.005-.135.01-1.21-.385-2.435-1.398-3.45l-1.888-1.886-.18-.194-3.395-3.393.857-.857 4.739 4.739.397.405c.703.704 1.202 1.403 1.545 2.087.345-.66.834-1.335 1.517-2.018l.065-.073 11.892-11.89a5.851 5.851 0 0 0 0-8.265 5.85 5.85 0 0 0-8.263 0l-.353.354-.857-.857.353-.353c2.75-2.75 7.226-2.75 9.976 0 2.751 2.75 2.751 7.226 0 9.976L24.418 29.558l-.375.377c-2.38 2.38-1.446 5.788.295 7.527l.433.41c3.612 3.613 9.488 3.613 13.1 0 3.613-3.612 3.613-9.489 0-13.1l-.353-.354.857-.857.353.354c4.084 4.084 4.084 10.73 0 14.813zM15.6 10.461l-5.14 5.14-.352-.353a3.639 3.639 0 0 1 0-5.14 3.638 3.638 0 0 1 5.14 0l.352.353zm1.21-1.914a5.849 5.849 0 0 0-8.263 0 5.85 5.85 0 0 0 0 8.263l.352.353-.856.856-.353-.352c-2.75-2.751-2.75-7.227 0-9.978 2.75-2.75 7.226-2.75 9.976 0l11.892 11.892-.857.856L16.81 8.547zM22 16.86L27.138 22l-5.14 5.139L16.86 22 22 16.86zM10.46 28.4l5.14 5.138-.353.353a3.638 3.638 0 0 1-5.139 0 3.639 3.639 0 0 1 0-5.14l.353-.351zm-.78-2.344l-1.134 1.133a5.85 5.85 0 0 0 0 8.264 5.85 5.85 0 0 0 8.263 0l.353-.353c1.741-1.74-.354-3.473-1.362-4.482l-.657-.661-3.12-3.121.856-.856 4.15 4.15.328.329c3.052 3.05.899 5.26.662 5.497l-.353.353c-2.75 2.752-7.226 2.75-9.977 0-2.75-2.75-2.75-7.226 0-9.977l11.892-11.89.856.857-5.92 5.92-4.837 4.837zM28.399 10.46l.353-.353a3.64 3.64 0 0 1 5.14 0 3.64 3.64 0 0 1 0 5.14l-.353.352-5.14-5.14zM5.271 5.27c4.084-4.084 10.73-4.084 14.814 0l11.89 11.89-.856.858L19.23 6.128c-3.613-3.612-9.489-3.612-13.1 0-3.613 3.612-3.613 9.489 0 13.1l.352.353-.857.857-.353-.352C1.187 16 1.187 9.356 5.271 5.27zm28.62 28.62a3.64 3.64 0 0 1-5.14 0l-.352-.352 5.14-5.14.352.352a3.64 3.64 0 0 1 0 5.14zm-9.977-28.62c4.085-4.084 10.73-4.084 14.814 0s4.084 10.73 0 14.814L26.837 31.976c-.91.911-1.132 1.992-.053 3.083l.406.394a5.85 5.85 0 0 0 8.263 0 5.85 5.85 0 0 0 0-8.263l-.352-.353.856-.856.353.353a7.061 7.061 0 0 1 0 9.976c-2.75 2.75-7.227 2.75-9.977 0 0 0-.173-.146-.407-.382-.215-.218-2.358-2.395.055-4.808l11.89-11.891c3.613-3.612 3.613-9.489 0-13.101-3.611-3.612-9.488-3.612-13.1 0l-.353.353-.856-.856.352-.354zM39.938 22l.353-.353c4.945-4.946 4.945-12.992 0-17.938-4.946-4.945-12.992-4.945-17.938 0L22 4.062l-.353-.353c-4.945-4.945-12.992-4.945-17.938 0-4.945 4.946-4.945 12.992 0 17.938l.353.353-.352.353c-4.946 4.945-4.946 12.991 0 17.938 4.945 4.945 12.992 4.945 17.937 0l.353-.353.353.353c4.946 4.945 12.992 4.945 17.938 0 4.945-4.947 4.945-12.993 0-17.938L39.938 22z"></path></svg></g><line x1="41" y1="1" x2="41" y2="28" stroke="#212529" stroke-linecap="round"></line><path fill="#212529" fill-rule="nonzero" d="M8.28 16.08Q5.98 16.08 4.63 15.30Q3.29 14.52 2.72 12.98Q2.16 11.45 2.16 9L2.16 9L2.16 2.88Q2.16 1.66 1.82 1.07Q1.49 0.48 0.48 0.48L0.48 0.48L0 0.48L0 0L2.16 0Q3.05 0 3.49 0.23Q3.94 0.46 4.13 1.06Q4.32 1.66 4.32 2.88L4.32 2.88L4.32 9.72Q4.32 12.38 5.30 13.75Q6.29 15.12 8.57 15.12L8.57 15.12Q10.39 15.12 11.46 14.47Q12.53 13.82 12.98 12.50Q13.44 11.18 13.44 9L13.44 9L13.44 0L14.40 0L14.40 9Q14.40 11.50 13.87 13.02Q13.34 14.54 12.01 15.31Q10.68 16.08 8.28 16.08L8.28 16.08ZM18.36 15.84L18.36 7.44Q18.36 6.22 18.02 5.63Q17.69 5.04 16.68 5.04L16.68 5.04L16.20 5.04L16.20 4.56L18.36 4.56Q19.25 4.56 19.72 4.80Q20.18 5.04 20.40 5.52L20.40 5.52L20.52 5.52Q21.02 5.02 21.83 4.67Q22.63 4.32 23.64 4.32L23.64 4.32Q25.44 4.32 26.58 5.28Q27.72 6.24 27.72 8.64L27.72 8.64L27.72 15.84L25.56 15.84L25.56 8.64Q25.56 6.96 24.80 6.18Q24.05 5.40 22.92 5.40L22.92 5.40Q21.65 5.40 20.52 6.67L20.52 6.67L20.52 15.84L18.36 15.84ZM32.33 3.12Q31.78 3.12 31.38 2.66Q30.98 2.21 30.98 1.58L30.98 1.58Q30.98 1.08 31.28 0.79Q31.58 0.50 32.09 0.50L32.09 0.50Q32.64 0.50 33.04 0.96Q33.43 1.42 33.43 2.04L33.43 2.04Q33.43 2.54 33.13 2.83Q32.83 3.12 32.33 3.12L32.33 3.12ZM31.42 15.84L31.42 7.44Q31.42 6.22 31.08 5.63Q30.74 5.04 29.74 5.04L29.74 5.04L29.26 5.04L29.26 4.56L31.42 4.56Q32.30 4.56 32.75 4.79Q33.19 5.02 33.38 5.62Q33.58 6.22 33.58 7.44L33.58 7.44L33.58 15.84L31.42 15.84ZM41.33 16.08L37.61 7.32Q37.03 5.98 36.50 5.44Q35.98 4.90 35.11 4.85L35.11 4.85L35.11 4.37Q35.23 4.37 35.46 4.34Q35.69 4.32 35.93 4.32L35.93 4.32Q37.20 4.32 38.23 4.96Q39.26 5.59 40.01 7.32L40.01 7.32L42.17 12.48L45.53 4.56L46.73 4.56L41.81 16.08L41.33 16.08ZM53.09 16.08Q51.46 16.08 50.33 15.30Q49.20 14.52 48.62 13.19Q48.05 11.86 48.05 10.20L48.05 10.20Q48.05 8.57 48.62 7.22Q49.20 5.88 50.29 5.10Q51.38 4.32 52.85 4.32L52.85 4.32Q55.27 4.32 56.46 5.68Q57.65 7.03 57.65 9.60L57.65 9.60L57.60 10.56L50.33 10.56Q50.33 12.58 51.19 13.85Q52.06 15.12 53.57 15.12L53.57 15.12Q54.70 15.12 55.48 14.64Q56.26 14.16 56.93 13.20L56.93 13.20L57.41 13.56Q56.62 14.88 55.56 15.48Q54.50 16.08 53.09 16.08L53.09 16.08ZM50.33 9.60L55.37 9.60Q55.37 7.49 54.74 6.38Q54.12 5.28 52.85 5.28L52.85 5.28Q52.13 5.28 51.55 5.84Q50.98 6.41 50.65 7.39Q50.33 8.38 50.33 9.60L50.33 9.60ZM60.60 15.84L60.60 7.44Q60.60 6.22 60.26 5.63Q59.93 5.04 58.92 5.04L58.92 5.04L58.68 5.04L58.68 4.56L60.60 4.56Q61.51 4.56 61.98 4.81Q62.45 5.06 62.64 5.64L62.64 5.64L62.76 5.64Q63.19 5.09 63.92 4.70Q64.66 4.32 65.64 4.32L65.64 4.32Q66.60 4.32 67.08 4.68L67.08 4.68Q67.49 4.99 67.92 5.76L67.92 5.76L66.96 6.48Q66.70 6.12 66.19 5.94Q65.69 5.76 65.04 5.76L65.04 5.76Q64.32 5.76 63.72 6.08Q63.12 6.41 62.76 6.96L62.76 6.96L62.76 15.84L60.60 15.84ZM73.70 16.08Q70.94 16.08 69.98 15.12L69.98 15.12Q69.58 14.71 69.48 14.20Q69.38 13.68 69.38 12.60L69.38 12.60L69.86 12.60Q70.08 13.80 70.91 14.46Q71.74 15.12 73.22 15.12L73.22 15.12Q74.54 15.12 75.20 14.66Q75.86 14.21 75.86 13.44L75.86 13.44Q75.86 12.74 75.35 12.24Q74.83 11.74 73.70 11.28L73.70 11.28L72.26 10.68Q70.82 10.10 70.10 9.34Q69.38 8.57 69.38 7.44L69.38 7.44Q69.38 5.98 70.49 5.15Q71.59 4.32 73.34 4.32L73.34 4.32Q75.98 4.32 76.94 5.28L76.94 5.28Q77.35 5.69 77.45 6.19Q77.54 6.70 77.54 7.80L77.54 7.80L77.06 7.80Q76.87 6.60 76.06 5.94Q75.24 5.28 73.82 5.28L73.82 5.28Q72.70 5.28 72.06 5.75Q71.42 6.22 71.42 6.96L71.42 6.96Q71.42 8.21 73.34 9L73.34 9L74.78 9.60Q76.42 10.27 77.16 11.03Q77.90 11.78 77.90 12.96L77.90 12.96Q77.90 14.42 76.73 15.25Q75.55 16.08 73.70 16.08L73.70 16.08ZM81.91 3.12Q81.36 3.12 80.96 2.66Q80.57 2.21 80.57 1.58L80.57 1.58Q80.57 1.08 80.87 0.79Q81.17 0.50 81.67 0.50L81.67 0.50Q82.22 0.50 82.62 0.96Q83.02 1.42 83.02 2.04L83.02 2.04Q83.02 2.54 82.72 2.83Q82.42 3.12 81.91 3.12L81.91 3.12ZM81 15.84L81 7.44Q81 6.22 80.66 5.63Q80.33 5.04 79.32 5.04L79.32 5.04L78.84 5.04L78.84 4.56L81 4.56Q81.89 4.56 82.33 4.79Q82.78 5.02 82.97 5.62Q83.16 6.22 83.16 7.44L83.16 7.44L83.16 15.84L81 15.84ZM89.88 16.08Q88.54 16.08 87.77 15.31Q87 14.54 87 12.96L87 12.96L87 5.52L85.32 5.52L85.32 4.56L87 4.56L87 2.40L88.20 0.96L89.16 0.96L89.16 4.56L92.04 4.56L92.04 5.52L89.16 5.52L89.16 12.96Q89.16 15.12 90.84 15.12L90.84 15.12Q91.42 15.12 91.81 15Q92.21 14.88 92.64 14.64L92.64 14.64L92.88 15.12Q92.33 15.53 91.66 15.80Q90.98 16.08 89.88 16.08L89.88 16.08ZM97.34 16.08Q96.58 16.08 95.78 15.76Q94.99 15.43 94.43 14.69Q93.86 13.94 93.86 12.72L93.86 12.72Q93.86 10.90 95.56 10.13Q97.25 9.36 99.98 9.36L99.98 9.36L100.70 9.36Q100.70 7.01 100.06 6.14Q99.41 5.28 98.18 5.28L98.18 5.28Q97.10 5.28 96.46 5.74Q95.81 6.19 95.54 7.32L95.54 7.32L94.46 7.32Q94.46 6.50 94.56 6.04Q94.66 5.57 95.06 5.16L95.06 5.16Q95.50 4.73 96.49 4.52Q97.49 4.32 98.66 4.32L98.66 4.32Q100.61 4.32 101.74 5.36Q102.86 6.41 102.86 9.36L102.86 9.36L102.86 15.84L101.66 15.84L100.82 14.76L100.70 14.76Q100.27 15.31 99.43 15.70Q98.59 16.08 97.34 16.08L97.34 16.08ZM98.42 15Q99.22 15 99.74 14.62Q100.27 14.23 100.70 13.56L100.70 13.56L100.70 10.32L99.98 10.32Q98.21 10.32 97.18 10.98Q96.14 11.64 96.14 12.72L96.14 12.72Q96.14 13.82 96.80 14.41Q97.46 15 98.42 15L98.42 15ZM99.43 3.48L98.47 3.48L96.19 0.36L98.47 0.36L99.43 3.48ZM111.05 15.84L111.05 15.36L121.01 0.96L115.25 0.96Q112.25 0.96 112.25 3.72L112.25 3.72L111.77 3.72L111.77 1.92Q111.77 0 113.81 0L113.81 0L124.25 0L114.05 14.88L123.89 14.88L123.89 15.84L111.05 15.84ZM128.93 16.08Q128.16 16.08 127.37 15.76Q126.58 15.43 126.01 14.69Q125.45 13.94 125.45 12.72L125.45 12.72Q125.45 10.90 127.14 10.13Q128.83 9.36 131.57 9.36L131.57 9.36L132.29 9.36Q132.29 7.01 131.64 6.14Q130.99 5.28 129.77 5.28L129.77 5.28Q128.69 5.28 128.04 5.74Q127.39 6.19 127.13 7.32L127.13 7.32L126.05 7.32Q126.05 6.50 126.14 6.04Q126.24 5.57 126.65 5.16L126.65 5.16Q127.08 4.73 128.08 4.52Q129.07 4.32 130.25 4.32L130.25 4.32Q132.19 4.32 133.32 5.36Q134.45 6.41 134.45 9.36L134.45 9.36L134.45 15.84L133.25 15.84L132.41 14.76L132.29 14.76Q131.86 15.31 131.02 15.70Q130.18 16.08 128.93 16.08L128.93 16.08ZM130.01 15Q130.80 15 131.33 14.62Q131.86 14.23 132.29 13.56L132.29 13.56L132.29 10.32L131.57 10.32Q129.79 10.32 128.76 10.98Q127.73 11.64 127.73 12.72L127.73 12.72Q127.73 13.82 128.39 14.41Q129.05 15 130.01 15L130.01 15ZM137.98 15.84L137.98 7.44Q137.98 6.22 137.64 5.63Q137.30 5.04 136.30 5.04L136.30 5.04L136.06 5.04L136.06 4.56L137.98 4.56Q138.89 4.56 139.36 4.81Q139.82 5.06 140.02 5.64L140.02 5.64L140.14 5.64Q140.57 5.09 141.30 4.70Q142.03 4.32 143.02 4.32L143.02 4.32Q143.98 4.32 144.46 4.68L144.46 4.68Q144.86 4.99 145.30 5.76L145.30 5.76L144.34 6.48Q144.07 6.12 143.57 5.94Q143.06 5.76 142.42 5.76L142.42 5.76Q141.70 5.76 141.10 6.08Q140.50 6.41 140.14 6.96L140.14 6.96L140.14 15.84L137.98 15.84ZM151.73 16.08Q150.10 16.08 148.90 15.30Q147.70 14.52 147.07 13.18Q146.45 11.83 146.45 10.20L146.45 10.20Q146.45 8.57 147.07 7.22Q147.70 5.88 148.90 5.10Q150.10 4.32 151.73 4.32L151.73 4.32Q153.36 4.32 154.56 5.10Q155.76 5.88 156.38 7.22Q157.01 8.57 157.01 10.20L157.01 10.20Q157.01 11.83 156.38 13.18Q155.76 14.52 154.56 15.30Q153.36 16.08 151.73 16.08L151.73 16.08ZM151.73 15.12Q152.62 15.12 153.30 14.47Q153.98 13.82 154.36 12.70Q154.73 11.57 154.73 10.20L154.73 10.20Q154.73 8.83 154.36 7.70Q153.98 6.58 153.30 5.93Q152.62 5.28 151.73 5.28L151.73 5.28Q150.84 5.28 150.16 5.93Q149.47 6.58 149.10 7.70Q148.73 8.83 148.73 10.20L148.73 10.20Q148.73 11.57 149.10 12.70Q149.47 13.82 150.16 14.47Q150.84 15.12 151.73 15.12L151.73 15.12Z" transform="translate(51, 6.461)"></path></svg>