<svg version="1.2" baseProfile="tiny-ps" xmlns="http://www.w3.org/2000/svg" viewBox="0 0 196 300" width="196" height="300"><title>Owl bird line icon, outline vector sign, linear style pictogram___</title><style>tspan { white-space:pre }.shp0 { fill: #f8f9fa } </style><path fill-rule="evenodd" class="shp0" d="M163.92 3.45C165.71 5.28 166.33 7.01 166.33 10.2C166.33 12.57 165.91 38.8 165.4 68.5C164.69 109.96 164.18 122.8 163.2 123.79C162.49 124.51 160.57 125.08 158.92 125.08C157.16 125.07 155.09 124.18 153.92 122.93C151.99 120.87 151.93 119.6 152.17 86.4L152.42 52C145.06 52.98 139.55 54.33 135.42 55.62C131.3 56.92 125.67 59.27 122.92 60.85C120.17 62.43 115.25 66.15 111.99 69.11C108.73 72.08 104.22 76.97 101.97 80C99.72 83.03 96.42 88.99 94.65 93.25C92.75 97.81 90.7 105.4 89.67 111.7C88.71 117.59 87.36 122.99 86.67 123.7C85.98 124.42 84.1 125 82.49 125C80.88 125 78.97 124.42 78.24 123.7C77.51 122.99 76.16 117.7 75.22 111.95C74.26 106.01 72.18 98.27 70.41 94C68.69 89.88 65.36 83.8 63.01 80.5C60.65 77.2 56.52 72.52 53.82 70.11C51.13 67.69 46.45 64.08 43.42 62.09C40.4 60.1 34.32 57.29 29.92 55.85C25.52 54.41 19.78 52.95 17.17 52.61L12.42 52C13.11 147.39 13.48 159.03 14.75 165.5C15.61 169.9 17.93 178.45 19.91 184.5C21.88 190.55 25.24 199.1 27.37 203.5C29.49 207.9 34.03 215.77 37.44 221C41.71 227.55 47.56 234.4 56.28 243.04C63.32 250.03 72.24 257.75 76.42 260.47C80.55 263.16 88.65 267.72 94.42 270.6C100.2 273.48 108.3 276.97 112.42 278.35C116.55 279.74 124.42 281.76 129.92 282.86C135.42 283.95 142.73 285.1 146.17 285.42C152.16 285.98 152.42 285.91 152.39 283.75C152.37 282.51 153.27 280.26 154.39 278.75C155.54 277.19 157.4 275.99 158.67 275.97C159.91 275.96 161.92 276.97 163.15 278.22C165.01 280.13 165.39 281.65 165.42 287.5C165.47 293.76 165.2 294.77 162.88 297C160.34 299.45 160.06 299.49 149.6 298.83C143.73 298.46 134.2 297.19 128.42 296.02C122.65 294.85 113.2 292.31 107.42 290.37C101.65 288.44 91.97 284.31 85.92 281.2C79.87 278.08 71.55 273.1 67.42 270.13C63.3 267.15 56.55 261.67 52.42 257.95C48.3 254.23 41.77 247.52 37.92 243.04C34.07 238.56 28.75 231.66 26.09 227.7C23.43 223.74 18.63 215.1 15.42 208.5C12.22 201.9 8.46 192.9 7.09 188.5C5.71 184.1 3.59 175.77 2.37 170C0.2 159.71 0.16 157.94 0.04 81.67C-0.08 4.92 -0.05 3.82 1.92 2.41C3.02 1.61 4.93 0.97 6.17 0.98C7.65 0.99 11.91 4.39 18.67 10.97L28.92 20.94L135.42 21C153.3 4.37 157.69 1 159.22 1C160.48 1 162.6 2.1 163.92 3.45ZM152.09 22.83L139.92 33.93L24.42 34L20.17 30.29C17.83 28.25 15.12 25.89 14.14 25.04C12.45 23.58 12.36 23.9 12.42 39L18.67 39.62C22.11 39.96 27.85 41.13 31.42 42.22C35 43.31 41.51 46.07 45.9 48.35C51.46 51.24 56.57 55.08 62.77 61C68.13 66.13 73.85 72.87 82.69 86.5L85.69 81C87.33 77.97 91.21 72.4 94.3 68.6C97.39 64.81 103.07 59.23 106.92 56.21C110.77 53.18 117.52 48.99 121.92 46.88C126.32 44.78 132.62 42.36 135.92 41.51C139.22 40.66 144.29 39.64 152.45 38.5L152.09 22.83ZM46.92 78.04C48.57 78.58 51.27 79.96 52.92 81.11C54.57 82.26 57.37 85.07 59.14 87.35C62.06 91.12 62.36 92.15 62.37 98.5C62.37 104.06 61.89 106.32 60.02 109.5C58.73 111.7 55.73 114.85 53.37 116.5C50.16 118.74 47.65 119.6 43.49 119.89C39.03 120.2 36.77 119.75 32.17 117.64C27.39 115.45 25.9 114.11 23.37 109.75C20.67 105.09 20.36 103.77 20.67 98C20.93 93.04 21.65 90.49 23.71 87.25C25.2 84.91 28.33 81.89 30.67 80.53C33.01 79.17 36.95 77.84 39.42 77.57C41.9 77.29 45.27 77.51 46.92 78.04ZM45.42 91.41C44.05 90.68 42.36 90.06 41.67 90.04C40.98 90.02 39.07 90.68 37.42 91.5C35.63 92.39 34.14 94.11 33.72 95.75C33.33 97.26 33.15 99.4 33.31 100.5C33.47 101.6 34.35 103.3 35.26 104.27C36.17 105.25 38.05 106.53 39.42 107.11C41.31 107.91 42.65 107.81 44.92 106.72C46.67 105.88 48.49 103.86 49.29 101.89C50.45 99.02 50.45 98.06 49.29 95.62C48.54 94.03 46.8 92.14 45.42 91.41ZM134.17 80.51C136.85 82.08 139.42 84.76 141.13 87.75C143.29 91.55 143.84 93.82 143.88 99.07C143.91 104.66 143.47 106.37 140.9 110.57C138.91 113.83 136.54 116.16 133.9 117.44C131.71 118.51 127.67 119.59 124.92 119.83C122.17 120.07 118.68 119.99 117.17 119.64C115.66 119.29 112.34 117.09 109.81 114.75C107.27 112.41 104.5 109.15 103.65 107.5C102.77 105.8 102.13 102.12 102.17 99C102.21 95.97 102.73 92.26 103.33 90.75C103.93 89.24 105.88 86.35 107.67 84.34C109.46 82.33 112.38 80.08 114.17 79.34C115.96 78.6 120.23 78 123.67 78.01C128.51 78.02 130.88 78.58 134.17 80.51ZM127.92 91.81C126.27 90.82 123.91 90.01 122.67 90C121.43 90 119.07 91.13 117.42 92.5C115.55 94.06 114.42 95.94 114.42 97.5C114.42 98.88 114.98 101.14 115.67 102.54C116.36 103.93 118.5 105.8 120.42 106.68C123.47 108.08 124.24 108.1 126.42 106.87C127.8 106.09 129.63 104.12 130.51 102.48C131.48 100.65 131.87 98.37 131.51 96.56C131.14 94.74 129.77 92.93 127.92 91.81ZM171.4 136.74C174.97 138.26 180.14 141.57 182.9 144.09C185.93 146.86 189.41 151.53 191.67 155.84L195.42 163C195.42 267.44 195.22 275.2 193.92 276.5C192.86 277.56 190.28 278 185.17 278C180.99 278 174.85 277.16 170.67 276C166.68 274.9 160.38 272.46 156.67 270.58C152.96 268.69 147 264.72 143.42 261.74C139.85 258.77 134.72 253.44 132.03 249.92C129.33 246.39 125.86 240.8 124.31 237.5C122.76 234.2 120.68 228.57 119.7 225C118.19 219.48 117.92 214.27 117.92 190.48L117.92 162.46C122.82 152.42 125.98 147.7 128.1 145.5C130.22 143.3 134.87 139.94 138.44 138.03C144.41 134.84 145.7 134.55 154.92 134.28C163.97 134.01 165.54 134.25 171.4 136.74ZM164.92 147.56C162.72 146.79 159.12 146.12 156.92 146.07C154.72 146.02 150.9 146.64 148.42 147.46C145.95 148.27 141.9 150.67 139.42 152.78C136.95 154.9 133.8 158.85 132.43 161.57C130.05 166.26 129.91 167.5 129.57 187C129.36 198.94 129.67 210.53 130.31 214.75C130.92 218.74 132.62 224.81 134.09 228.25C135.55 231.69 138.55 236.98 140.74 240C142.94 243.02 146.58 247.23 148.83 249.33C151.08 251.44 154.72 254.42 156.92 255.95C159.12 257.49 163.17 259.69 165.92 260.85C168.67 262.01 173.73 263.65 183.42 266L183.23 235.25C183.12 218.34 182.78 195.27 182.48 184C181.94 164.32 181.82 163.34 179.42 159.57C178.05 157.41 175.12 154.14 172.92 152.3C170.72 150.46 167.12 148.32 164.92 147.56ZM173.31 176.25C175.15 178.1 175.44 179.22 174.95 182.5C174.63 184.7 173.56 187.85 172.59 189.5C171.58 191.22 168.7 193.53 165.87 194.9C162.05 196.75 160 197.15 156.92 196.67C154.72 196.32 151.57 195.08 149.92 193.91C148.27 192.75 146.06 190.6 145 189.14C143.94 187.69 142.89 184.93 142.65 183C142.35 180.51 142.83 178.71 144.32 176.75C145.48 175.24 147.39 174 148.57 174C149.75 174 151.47 175.01 152.38 176.25C153.3 177.49 154.81 179.74 155.74 181.25C156.66 182.76 158.1 184 158.92 184C159.75 184 161.15 182.54 162.04 180.75C162.93 178.96 164.39 176.7 165.29 175.72C166.19 174.74 167.86 173.95 169 173.97C170.15 173.99 172.09 175.01 173.31 176.25ZM178.95 216.83C179.96 217.83 180.7 219.86 180.6 221.33C180.5 222.8 179.8 225.46 179.04 227.25C178.29 229.04 176.23 231.85 174.47 233.5C171.63 236.17 170.5 236.53 164.1 236.8L156.92 237.09C148.86 228.87 148.5 228.05 148.46 223.25C148.43 219.87 148.95 217.47 149.92 216.5C150.75 215.68 152.43 214.99 153.67 214.97C154.91 214.95 156.65 215.74 157.55 216.72C158.45 217.7 159.44 219.4 159.76 220.5C160.08 221.6 161.25 223.29 162.38 224.25C164.35 225.94 164.49 225.9 166.45 223.25C167.57 221.74 168.47 219.94 168.45 219.25C168.44 218.56 169.43 217.32 170.67 216.49C171.91 215.66 173.87 214.99 175.02 214.99C176.18 215 177.95 215.82 178.95 216.83Z" /></svg>